<svg width="22" height="16" viewBox="0 0 22 16" fill="none" xmlns="http://www.w3.org/2000/svg">
<path d="M11.0002 4.81714C10.1578 4.8227 9.35144 5.15981 8.75575 5.7555C8.16006 6.35119 7.82294 7.15752 7.81738 7.99994C7.81738 9.74199 9.25814 11.1827 11.0002 11.1827C12.7412 11.1827 14.183 9.74199 14.183 7.99994C14.183 6.25895 12.7412 4.81714 11.0002 4.81714Z" fill="#767676"/>
<path d="M11.0002 0.573242C2.90203 0.573242 0.468235 7.59343 0.445956 7.66451L0.333496 7.99977L0.444895 8.33502C0.468235 8.4061 2.90203 15.4263 11.0002 15.4263C19.0983 15.4263 21.5321 8.4061 21.5544 8.33502L21.6668 7.99977L21.5554 7.66451C21.5321 7.59343 19.0983 0.573242 11.0002 0.573242ZM11.0002 13.3044C5.32309 13.3044 3.12376 9.22408 2.59117 7.99977C3.12588 6.77121 5.32627 2.69511 11.0002 2.69511C16.6772 2.69511 18.8766 6.77545 19.4092 7.99977C18.8744 9.22833 16.6741 13.3044 11.0002 13.3044Z" fill="#767676"/>
</svg>
